<svg xmlns="http://www.w3.org/2000/svg" enable-background="new 0 0 34 34" viewBox="0 0 34 34"><path d="M32,23.5h-2v-6c0-0.6-0.4-1-1-1H18v-4h4c0.6,0,1-0.4,1-1v-8c0-0.6-0.4-1-1-1H12c-0.6,0-1,0.4-1,1v8c0,0.6,0.4,1,1,1h4v4H5
		c-0.6,0-1,0.4-1,1v6H2c-0.6,0-1,0.4-1,1v6c0,0.6,0.4,1,1,1h6c0.6,0,1-0.4,1-1v-6c0-0.6-0.4-1-1-1H6v-5h10v5h-2c-0.6,0-1,0.4-1,1v6
		c0,0.6,0.4,1,1,1h6c0.6,0,1-0.4,1-1v-6c0-0.6-0.4-1-1-1h-2v-5h10v5h-2c-0.6,0-1,0.4-1,1v6c0,0.6,0.4,1,1,1h6c0.6,0,1-0.4,1-1v-6
		C33,23.9,32.6,23.5,32,23.5z M13,4.5h8v6h-8V4.5z M7,29.5H3v-4h4V29.5z M19,29.5h-4v-4h4V29.5z M31,29.5h-4v-4h4V29.5z"/></svg>