<svg xmlns="http://www.w3.org/2000/svg" data-name="Layer 1" viewBox="0 0 64 64"><rect width="13.52" height="10.72" x="25.24" y="14.06" rx=".7"/><rect width="13.51" height="10.72" x="42.49" y="39.22" rx=".7"/><rect width="13.52" height="10.72" x="25.24" y="39.22" rx=".7"/><rect width="13.51" height="10.72" x="8" y="39.22" rx=".7"/><path d="M50.71,31.18a.7.7,0,0,0-.7-.7H33.4V26.64a.7.7,0,0,0-.7-.7H31.3a.7.7,0,0,0-.7.7v3.84H13.94a.71.71,0,0,0-.7.7v.25s0,.06,0,.09v5.61a.69.69,0,0,0,.7.69h1.4a.69.69,0,0,0,.69-.69V33.28H30.6v3.85a.7.7,0,0,0,.7.69h1.4a.7.7,0,0,0,.7-.69V33.28H47.92v4a.7.7,0,0,0,.7.7H50a.7.7,0,0,0,.69-.7V31.18Z"/></svg>