<svg xmlns="http://www.w3.org/2000/svg" width="48" height="48"><path fill-rule="evenodd" d="M33 47H15a4 4 0 0 1-4-4V5a4 4 0 0 1 4-4h18a4 4 0 0 1 4 4v38a4 4 0 0 1-4 4zm2-42a2 2 0 0 0-2-2H15a2 2 0 0 0-2 2v4h22V5zm0 6H13v26h22V11zm0 28H13v4a2 2 0 0 0 2 2h18a2 2 0 0 0 2-2v-4zm-11 5a2 2 0 1 1 .001-4.001A2 2 0 0 1 24 44zm-7-30h2a1 1 0 0 1 1 1v2a1 1 0 0 1-1 1h-2a1 1 0 0 1-1-1v-2a1 1 0 0 1 1-1zm0 7h2a1 1 0 0 1 1 1v2a1 1 0 0 1-1 1h-2a1 1 0 0 1-1-1v-2a1 1 0 0 1 1-1zm0 7h2a1 1 0 0 1 1 1v2a1 1 0 0 1-1 1h-2a1 1 0 0 1-1-1v-2a1 1 0 0 1 1-1zm6-14h2a1 1 0 0 1 1 1v2a1 1 0 0 1-1 1h-2a1 1 0 0 1-1-1v-2a1 1 0 0 1 1-1zm0 7h2a1 1 0 0 1 1 1v2a1 1 0 0 1-1 1h-2a1 1 0 0 1-1-1v-2a1 1 0 0 1 1-1zm0 7h2a1 1 0 0 1 1 1v2a1 1 0 0 1-1 1h-2a1 1 0 0 1-1-1v-2a1 1 0 0 1 1-1zm6-14h2a1 1 0 0 1 1 1v2a1 1 0 0 1-1 1h-2a1 1 0 0 1-1-1v-2a1 1 0 0 1 1-1zm0 7h2a1 1 0 0 1 1 1v2a1 1 0 0 1-1 1h-2a1 1 0 0 1-1-1v-2a1 1 0 0 1 1-1zM21 5h6a1 1 0 1 1 0 2h-6a1 1 0 1 1 0-2z" clip-rule="evenodd"/></svg>