<svg xmlns="http://www.w3.org/2000/svg" data-name="Layer 1" viewBox="0 0 128 128"><path d="M127.2,29.9a2,2,0,0,0-1.75-.32l-20.62,5.94-.31-1a4,4,0,0,0-5-2.69L87.42,35.37a3.91,3.91,0,0,0-2.36,1.91,4,4,0,0,0-.3,3.06l.27.87a17.36,17.36,0,0,0-2.11.58l-1.24.41-4.43-1.57a6.94,6.94,0,0,0-8.41-3.39l-.62.2L56.46,33.28A6.83,6.83,0,0,0,47.7,37.5a7,7,0,0,0,0,4.5,7.72,7.72,0,0,0,.87,1.66l-6.34,2c-.65-.2-1.31-.38-2-.52l.24-.88a4,4,0,0,0-2.78-4.91L25.51,35.8a4,4,0,0,0-4.93,2.75l-.3,1.14L2.55,34.58A2,2,0,0,0,.8,34.9,2,2,0,0,0,0,36.5L.08,75.08A2,2,0,0,0,1.55,77l7.93,2.17-.66,2.42a4,4,0,0,0,2.78,4.92L23.85,90a4,4,0,0,0,4.93-2.75l.21-.77.56.2S62.17,97.13,64.07,97.4a6.83,6.83,0,0,0,7.66-6h0l25.52-8.59.49-.18.26.81a4.05,4.05,0,0,0,3.85,2.85,4.25,4.25,0,0,0,1.11-.16l12.13-3.55a3.94,3.94,0,0,0,2.66-5l-.9-2.93L126.45,72a2,2,0,0,0,1.47-1.92L128,31.5A2,2,0,0,0,127.2,29.9ZM10.54,75.31,4.08,73.55,4,39.16l15.21,4.38Zm18.32-22.7-4.7,17.17a2,2,0,0,1-1.92,1.47,1.88,1.88,0,0,1-.53-.07,2,2,0,0,1-1.41-2.46L25,51.55a2,2,0,0,1,3.86,1.06ZM77,77.81,57.88,71.46c-2.44-.81-3.72,3-1.26,3.79l18.23,6.07a2.93,2.93,0,0,1,.76,3c-1,3.07-4.51,1.5-6.6.86L58.7,82C56.26,81.22,55,85,57.52,85.8L67,88.71c1,.32.86,2.6.5,3.29-1.6,3-6.77.33-9.09-.38,0,0-28.08-8.88-28.33-9L39.24,49a14,14,0,0,0,3.82.6l9.75-3.09,8.82,2.79-3.91,2.26-.44-.14c-2.4-.73-3.64,3.07-1.17,3.83l25.47,7.81a3,3,0,0,1,.53,5.32,2.87,2.87,0,0,1-2.21.15L57,60.93c-2.44-.81-3.72,3-1.26,3.8l22.88,7.61A3,3,0,0,1,80.55,76,2.84,2.84,0,0,1,77,77.81ZM96,79l-16.34,5.5a7.25,7.25,0,0,0,.08-1,6.65,6.65,0,0,0-.21-1.67A7.17,7.17,0,0,0,81,81.21a6.74,6.74,0,0,0,3.38-4A6.9,6.9,0,0,0,83.9,72h0a6.74,6.74,0,0,0,3.37-4,7,7,0,0,0-4.51-8.7l-19.56-6,4.14-2a2,2,0,0,0,0-3.78l-14-5a3,3,0,0,1-1.83-1.82,2.92,2.92,0,0,1,0-1.89A2.83,2.83,0,0,1,55.12,37L81,46.2a2,2,0,0,0,1.31,0l1.88-.63a16.35,16.35,0,0,1,2-.55l10.38,33.7Zm8.44-9.79a2,2,0,0,1-2.5-1.32L96.65,50.68a2,2,0,1,1,3.82-1.18l5.29,17.17A2,2,0,0,1,104.44,69.17Zm19.48-.62L115.7,70.8,106,39.34l18-5.18Z"/></svg>