<svg xmlns="http://www.w3.org/2000/svg" viewBox="0 0 48 48"><path d="M31,36H9V10H31v2h2V6a4,4,0,0,0-4-4H11A4,4,0,0,0,7,6V42a4,4,0,0,0,4,4H29a4,4,0,0,0,4-4V34H31ZM11,4H29a2,2,0,0,1,2,2V8H9V6A2,2,0,0,1,11,4ZM29,44H11a2,2,0,0,1-2-2V38H31v4A2,2,0,0,1,29,44ZM23,7H17V5h6ZM17,40h6v2H17ZM41.55,19.17l-9-6a1,1,0,0,0-1.1,0l-9,6,1.1,1.66,1.45-1V30a3,3,0,0,0,3,3h8a3,3,0,0,0,3-3V19.87l1.45,1ZM31,31V27h2v4Zm6-1a1,1,0,0,1-1,1H35V26a1,1,0,0,0-1-1H30a1,1,0,0,0-1,1v5H28a1,1,0,0,1-1-1V18.54l5-3.34,5,3.34Z" data-name="40 Smart House, Digital Technology, Home"/></svg>